<svg width="44" height="44" viewBox="0 0 44 44" fill="none" xmlns="http://www.w3.org/2000/svg">
<path d="M0 0H44V44H0V0Z" fill="url(#paint0_linear)"/>
<path fill-rule="evenodd" clip-rule="evenodd" d="M44 22.3841V44.0001L17.5 44.0001L8.5 31L16.5 27.5001L28 25.5001L35 12.5L44 22.3841Z" fill="url(#paint1_linear)"/>
<g filter="url(#filter0_d)">
<path d="M8.21875 14.5001H35.7533V29.4065C35.7533 31.0634 34.4102 32.4065 32.7533 32.4065H11.2187C9.56189 32.4065 8.21875 31.0634 8.21875 29.4065V14.5001Z" fill="#F6AF21"/>
<path fill-rule="evenodd" clip-rule="evenodd" d="M10.7062 11.2858H33.2948C33.9597 11.2858 34.5354 11.5208 35.0214 11.9905C35.507 12.4608 35.7503 13.0255 35.7503 13.6854C35.7503 14.4752 35.4993 15.2301 34.9988 15.9497C34.4974 16.6694 33.8735 17.2845 33.1268 17.7942C30.6438 19.4784 28.7701 20.7499 27.4979 21.6137C26.7987 22.0882 26.2787 22.4415 25.945 22.6684C25.8955 22.7024 25.8182 22.7561 25.7155 22.8282C25.6049 22.9055 25.465 23.0041 25.2927 23.1259C24.9602 23.3609 24.684 23.5508 24.464 23.6959C24.2436 23.8407 23.9778 24.0032 23.6658 24.1833C23.3536 24.3634 23.0596 24.4983 22.7834 24.5882C22.5071 24.6781 22.2514 24.7232 22.0162 24.7232H22.0009H21.9856C21.7503 24.7232 21.4946 24.6781 21.2184 24.5882C20.9422 24.4983 20.6479 24.3631 20.3359 24.1833C20.0237 24.0032 19.7575 23.8411 19.5378 23.6959C19.3179 23.5508 19.0417 23.3609 18.7092 23.1259C18.5366 23.0041 18.3966 22.9055 18.286 22.8279L18.2749 22.8201C18.1777 22.7523 18.1042 22.7009 18.0569 22.6684C17.6285 22.374 17.1096 22.0192 16.508 21.6096C15.8022 21.1285 14.9809 20.571 14.0364 19.9314C12.2868 18.7468 11.2381 18.0343 10.8904 17.7942C10.2561 17.3744 9.65748 16.7971 9.09496 16.0623C8.53243 15.3271 8.25104 14.6448 8.25104 14.015C8.25104 13.2354 8.46308 12.5853 8.88786 12.0654C9.31229 11.5458 9.91815 11.2858 10.7062 11.2858ZM34.2149 19.3992C32.1247 20.7818 30.3482 21.972 28.8851 22.9705L35.7494 29.6791V18.0943C35.3093 18.5744 34.7979 19.0092 34.2149 19.3992ZM8.25 18.0944C8.70009 18.5844 9.21709 19.0194 9.80008 19.3993C11.9732 20.8424 13.7432 22.0306 15.117 22.9679L8.25 29.6789V18.0944ZM34.9027 31.6565C34.4474 32.0503 33.9118 32.4014 33.2936 32.4014H10.705C10.0869 32.4014 9.55094 32.0503 9.09565 31.6565L16.8882 24.1917C17.0831 24.3285 17.2634 24.4563 17.426 24.5728C18.0093 24.9926 18.4823 25.3202 18.8456 25.5549C19.2086 25.7902 19.692 26.03 20.2957 26.2748C20.8995 26.52 21.462 26.6421 21.9839 26.6421H21.9992H22.0145C22.5363 26.6421 23.0988 26.52 23.7026 26.2748C24.3061 26.03 24.7895 25.7902 25.1528 25.5549C25.5161 25.3202 25.9894 24.9926 26.5724 24.5728C26.7435 24.4518 26.9247 24.3246 27.1117 24.1938L34.9027 31.6565Z" fill="#F5F6FA"/>
</g>
<defs>
<filter id="filter0_d" x="5" y="6" width="34.0002" height="34.0002" filterUnits="userSpaceOnUse" color-interpolation-filters="sRGB">
<feFlood flood-opacity="0" result="BackgroundImageFix"/>
<feColorMatrix in="SourceAlpha" type="matrix" values="0 0 0 0 0 0 0 0 0 0 0 0 0 0 0 0 0 0 127 0"/>
<feOffset dy="1"/>
<feGaussianBlur stdDeviation="1"/>
<feColorMatrix type="matrix" values="0 0 0 0 0 0 0 0 0 0 0 0 0 0 0 0 0 0 0.15 0"/>
<feBlend mode="normal" in2="BackgroundImageFix" result="effect1_dropShadow"/>
<feBlend mode="normal" in="SourceGraphic" in2="effect1_dropShadow" result="shape"/>
</filter>
<linearGradient id="paint0_linear" x1="22" y1="0" x2="22" y2="44" gradientUnits="userSpaceOnUse">
<stop stop-color="#FFC044"/>
<stop offset="1" stop-color="#EF9F00"/>
</linearGradient>
<linearGradient id="paint1_linear" x1="22.5" y1="23.1616" x2="44.2971" y2="45.6506" gradientUnits="userSpaceOnUse">
<stop stop-opacity="0.1"/>
<stop offset="1" stop-opacity="0"/>
</linearGradient>
</defs>
</svg>
